<mxfile host="app.diagrams.net" modified="2022-02-25T00:36:21.055Z" agent="5.0 (Windows NT 10.0; Win64; x64) AppleWebKit/537.36 (KHTML, like Gecko) Chrome/98.0.4758.102 Safari/537.36" etag="gbwocJNEHmK0KqcGx-CV" version="16.6.4" type="github">
  <diagram id="R2lEEEUBdFMjLlhIrx00" name="Page-1">
    <mxGraphModel dx="1422" dy="794" grid="1" gridSize="10" guides="1" tooltips="1" connect="1" arrows="1" fold="1" page="1" pageScale="1" pageWidth="850" pageHeight="1100" math="0" shadow="0" extFonts="Permanent Marker^https://fonts.googleapis.com/css?family=Permanent+Marker">
      <root>
        <mxCell id="0" />
        <mxCell id="1" parent="0" />
        <mxCell id="rHgchCrnLf1d8rRl3W0B-3" value="" style="edgeStyle=orthogonalEdgeStyle;rounded=0;orthogonalLoop=1;jettySize=auto;html=1;" edge="1" parent="1" source="rHgchCrnLf1d8rRl3W0B-1" target="rHgchCrnLf1d8rRl3W0B-2">
          <mxGeometry relative="1" as="geometry" />
        </mxCell>
        <mxCell id="rHgchCrnLf1d8rRl3W0B-7" value="1" style="edgeStyle=orthogonalEdgeStyle;rounded=0;orthogonalLoop=1;jettySize=auto;html=1;entryX=0;entryY=0.5;entryDx=0;entryDy=0;fontSize=15;" edge="1" parent="1" source="rHgchCrnLf1d8rRl3W0B-1" target="rHgchCrnLf1d8rRl3W0B-6">
          <mxGeometry relative="1" as="geometry" />
        </mxCell>
        <mxCell id="rHgchCrnLf1d8rRl3W0B-1" value="Pesquisador" style="rounded=0;whiteSpace=wrap;html=1;" vertex="1" parent="1">
          <mxGeometry x="190" y="120" width="120" height="60" as="geometry" />
        </mxCell>
        <mxCell id="rHgchCrnLf1d8rRl3W0B-2" value="Nome" style="ellipse;whiteSpace=wrap;html=1;rounded=0;" vertex="1" parent="1">
          <mxGeometry x="110" y="30" width="90" height="50" as="geometry" />
        </mxCell>
        <mxCell id="rHgchCrnLf1d8rRl3W0B-5" value="" style="edgeStyle=orthogonalEdgeStyle;rounded=0;orthogonalLoop=1;jettySize=auto;html=1;" edge="1" parent="1" source="rHgchCrnLf1d8rRl3W0B-4" target="rHgchCrnLf1d8rRl3W0B-1">
          <mxGeometry relative="1" as="geometry" />
        </mxCell>
        <mxCell id="rHgchCrnLf1d8rRl3W0B-4" value="&lt;u&gt;cpf&lt;/u&gt;" style="ellipse;whiteSpace=wrap;html=1;rounded=0;" vertex="1" parent="1">
          <mxGeometry x="240" y="30" width="100" height="50" as="geometry" />
        </mxCell>
        <mxCell id="rHgchCrnLf1d8rRl3W0B-9" value="N" style="edgeStyle=orthogonalEdgeStyle;rounded=0;orthogonalLoop=1;jettySize=auto;html=1;fontSize=15;" edge="1" parent="1" source="rHgchCrnLf1d8rRl3W0B-6" target="rHgchCrnLf1d8rRl3W0B-8">
          <mxGeometry relative="1" as="geometry" />
        </mxCell>
        <mxCell id="rHgchCrnLf1d8rRl3W0B-6" value="Pertence" style="rhombus;whiteSpace=wrap;html=1;" vertex="1" parent="1">
          <mxGeometry x="400" y="110" width="80" height="80" as="geometry" />
        </mxCell>
        <mxCell id="rHgchCrnLf1d8rRl3W0B-11" value="" style="edgeStyle=orthogonalEdgeStyle;rounded=0;orthogonalLoop=1;jettySize=auto;html=1;" edge="1" parent="1" source="rHgchCrnLf1d8rRl3W0B-8" target="rHgchCrnLf1d8rRl3W0B-10">
          <mxGeometry relative="1" as="geometry" />
        </mxCell>
        <mxCell id="rHgchCrnLf1d8rRl3W0B-8" value="Instituição" style="whiteSpace=wrap;html=1;" vertex="1" parent="1">
          <mxGeometry x="560" y="120" width="120" height="60" as="geometry" />
        </mxCell>
        <mxCell id="rHgchCrnLf1d8rRl3W0B-10" value="&lt;u&gt;código&lt;/u&gt;" style="ellipse;whiteSpace=wrap;html=1;" vertex="1" parent="1">
          <mxGeometry x="480" y="20" width="80" height="50" as="geometry" />
        </mxCell>
        <mxCell id="rHgchCrnLf1d8rRl3W0B-13" style="edgeStyle=orthogonalEdgeStyle;rounded=0;orthogonalLoop=1;jettySize=auto;html=1;" edge="1" parent="1" source="rHgchCrnLf1d8rRl3W0B-12" target="rHgchCrnLf1d8rRl3W0B-8">
          <mxGeometry relative="1" as="geometry" />
        </mxCell>
        <mxCell id="rHgchCrnLf1d8rRl3W0B-12" value="Nome" style="ellipse;whiteSpace=wrap;html=1;" vertex="1" parent="1">
          <mxGeometry x="620" y="20" width="80" height="50" as="geometry" />
        </mxCell>
        <mxCell id="rHgchCrnLf1d8rRl3W0B-19" value="" style="edgeStyle=orthogonalEdgeStyle;rounded=0;orthogonalLoop=1;jettySize=auto;html=1;" edge="1" parent="1" source="rHgchCrnLf1d8rRl3W0B-16" target="rHgchCrnLf1d8rRl3W0B-18">
          <mxGeometry relative="1" as="geometry" />
        </mxCell>
        <mxCell id="rHgchCrnLf1d8rRl3W0B-21" value="" style="edgeStyle=orthogonalEdgeStyle;rounded=0;orthogonalLoop=1;jettySize=auto;html=1;" edge="1" parent="1" source="rHgchCrnLf1d8rRl3W0B-16" target="rHgchCrnLf1d8rRl3W0B-20">
          <mxGeometry relative="1" as="geometry" />
        </mxCell>
        <mxCell id="rHgchCrnLf1d8rRl3W0B-23" value="" style="edgeStyle=orthogonalEdgeStyle;rounded=0;orthogonalLoop=1;jettySize=auto;html=1;" edge="1" parent="1" source="rHgchCrnLf1d8rRl3W0B-16" target="rHgchCrnLf1d8rRl3W0B-22">
          <mxGeometry relative="1" as="geometry" />
        </mxCell>
        <mxCell id="rHgchCrnLf1d8rRl3W0B-25" value="N" style="edgeStyle=orthogonalEdgeStyle;rounded=0;orthogonalLoop=1;jettySize=auto;html=1;fontSize=15;" edge="1" parent="1" source="rHgchCrnLf1d8rRl3W0B-16" target="rHgchCrnLf1d8rRl3W0B-24">
          <mxGeometry relative="1" as="geometry" />
        </mxCell>
        <mxCell id="rHgchCrnLf1d8rRl3W0B-16" value="Veículo de publicação" style="whiteSpace=wrap;html=1;" vertex="1" parent="1">
          <mxGeometry x="560" y="420" width="120" height="60" as="geometry" />
        </mxCell>
        <mxCell id="rHgchCrnLf1d8rRl3W0B-18" value="Título" style="ellipse;whiteSpace=wrap;html=1;" vertex="1" parent="1">
          <mxGeometry x="490" y="530" width="100" height="40" as="geometry" />
        </mxCell>
        <mxCell id="rHgchCrnLf1d8rRl3W0B-20" value="local" style="ellipse;whiteSpace=wrap;html=1;" vertex="1" parent="1">
          <mxGeometry x="680" y="530" width="80" height="50" as="geometry" />
        </mxCell>
        <mxCell id="rHgchCrnLf1d8rRl3W0B-22" value="&lt;u&gt;código&lt;/u&gt;" style="ellipse;whiteSpace=wrap;html=1;" vertex="1" parent="1">
          <mxGeometry x="600" y="530" width="80" height="50" as="geometry" />
        </mxCell>
        <mxCell id="rHgchCrnLf1d8rRl3W0B-27" value="N" style="edgeStyle=orthogonalEdgeStyle;rounded=0;orthogonalLoop=1;jettySize=auto;html=1;fontSize=15;" edge="1" parent="1" source="rHgchCrnLf1d8rRl3W0B-24" target="rHgchCrnLf1d8rRl3W0B-26">
          <mxGeometry relative="1" as="geometry" />
        </mxCell>
        <mxCell id="rHgchCrnLf1d8rRl3W0B-24" value="" style="rhombus;whiteSpace=wrap;html=1;" vertex="1" parent="1">
          <mxGeometry x="380" y="410" width="80" height="80" as="geometry" />
        </mxCell>
        <mxCell id="rHgchCrnLf1d8rRl3W0B-29" value="N" style="edgeStyle=orthogonalEdgeStyle;rounded=0;orthogonalLoop=1;jettySize=auto;html=1;fontSize=15;" edge="1" parent="1" source="rHgchCrnLf1d8rRl3W0B-26" target="rHgchCrnLf1d8rRl3W0B-28">
          <mxGeometry relative="1" as="geometry" />
        </mxCell>
        <mxCell id="rHgchCrnLf1d8rRl3W0B-32" value="" style="edgeStyle=orthogonalEdgeStyle;rounded=0;orthogonalLoop=1;jettySize=auto;html=1;" edge="1" parent="1" source="rHgchCrnLf1d8rRl3W0B-26" target="rHgchCrnLf1d8rRl3W0B-31">
          <mxGeometry relative="1" as="geometry">
            <Array as="points">
              <mxPoint x="230" y="560" />
            </Array>
          </mxGeometry>
        </mxCell>
        <mxCell id="rHgchCrnLf1d8rRl3W0B-34" value="" style="edgeStyle=orthogonalEdgeStyle;rounded=0;orthogonalLoop=1;jettySize=auto;html=1;" edge="1" parent="1" source="rHgchCrnLf1d8rRl3W0B-26" target="rHgchCrnLf1d8rRl3W0B-33">
          <mxGeometry relative="1" as="geometry" />
        </mxCell>
        <mxCell id="rHgchCrnLf1d8rRl3W0B-37" value="" style="edgeStyle=orthogonalEdgeStyle;rounded=0;orthogonalLoop=1;jettySize=auto;html=1;" edge="1" parent="1" source="rHgchCrnLf1d8rRl3W0B-26" target="rHgchCrnLf1d8rRl3W0B-36">
          <mxGeometry relative="1" as="geometry" />
        </mxCell>
        <mxCell id="rHgchCrnLf1d8rRl3W0B-26" value="Artigo" style="whiteSpace=wrap;html=1;" vertex="1" parent="1">
          <mxGeometry x="170" y="420" width="120" height="60" as="geometry" />
        </mxCell>
        <mxCell id="rHgchCrnLf1d8rRl3W0B-30" value="N" style="edgeStyle=orthogonalEdgeStyle;rounded=0;orthogonalLoop=1;jettySize=auto;html=1;fontSize=16;" edge="1" parent="1" source="rHgchCrnLf1d8rRl3W0B-28" target="rHgchCrnLf1d8rRl3W0B-1">
          <mxGeometry y="5" relative="1" as="geometry">
            <mxPoint x="240" y="220" as="targetPoint" />
            <mxPoint as="offset" />
          </mxGeometry>
        </mxCell>
        <mxCell id="rHgchCrnLf1d8rRl3W0B-28" value="Possui" style="rhombus;whiteSpace=wrap;html=1;" vertex="1" parent="1">
          <mxGeometry x="190" y="270" width="80" height="80" as="geometry" />
        </mxCell>
        <mxCell id="rHgchCrnLf1d8rRl3W0B-31" value="Título" style="ellipse;whiteSpace=wrap;html=1;" vertex="1" parent="1">
          <mxGeometry x="180" y="560" width="70" height="30" as="geometry" />
        </mxCell>
        <mxCell id="rHgchCrnLf1d8rRl3W0B-33" value="Final" style="ellipse;whiteSpace=wrap;html=1;" vertex="1" parent="1">
          <mxGeometry x="105" y="560" width="65" height="30" as="geometry" />
        </mxCell>
        <mxCell id="rHgchCrnLf1d8rRl3W0B-36" value="Inicial" style="ellipse;whiteSpace=wrap;html=1;" vertex="1" parent="1">
          <mxGeometry x="260" y="560" width="60" height="40" as="geometry" />
        </mxCell>
      </root>
    </mxGraphModel>
  </diagram>
</mxfile>
